<svg width="1062" height="379" viewBox="0 0 1062 379" fill="none" xmlns="http://www.w3.org/2000/svg">
<rect width="371.591" height="378.962" rx="140" fill="#EA6060"/>
<path d="M157.129 258.962C146.755 258.962 137.928 256.05 130.647 250.226C123.549 244.22 120 235.665 120 224.563C120 215.827 124.186 207.818 132.558 200.538C141.113 193.076 154.49 187.616 172.691 184.157C175.785 183.429 179.334 182.792 183.338 182.246C187.525 181.518 191.62 180.79 195.624 180.062V160.679C195.624 148.302 194.077 139.748 190.983 135.016C187.889 130.283 182.974 127.917 176.24 127.917H175.421C171.235 127.917 167.868 129.282 165.32 132.012C162.954 134.561 161.407 138.838 160.679 144.844L159.86 148.393C159.313 155.673 157.402 161.043 154.126 164.501C150.85 167.777 146.755 169.415 141.841 169.415C137.291 169.415 133.469 168.05 130.374 165.32C127.462 162.408 126.006 158.676 126.006 154.126C126.006 146.664 128.554 140.385 133.651 135.289C138.747 130.192 145.481 126.37 153.853 123.822C162.408 121.274 171.599 120 181.427 120C197.626 120 210.002 123.913 218.557 131.739C227.111 139.566 231.388 152.306 231.388 169.961V230.842C231.388 238.668 235.119 242.582 242.582 242.582H248.861L251.591 245.585C248.315 249.771 244.675 252.956 240.671 255.14C236.666 257.506 231.206 258.689 224.29 258.689C216.464 258.689 210.184 256.869 205.452 253.229C200.902 249.407 197.899 244.402 196.443 238.213C190.619 244.402 184.885 249.407 179.243 253.229C173.601 257.051 166.23 258.962 157.129 258.962ZM172.964 241.49C176.604 241.49 180.062 240.671 183.338 239.032C186.615 237.394 190.71 234.664 195.624 230.842V187.161C190.892 187.889 186.068 188.799 181.154 189.891C173.328 191.711 166.958 195.078 162.044 199.992C157.311 204.906 154.945 211.549 154.945 219.922C154.945 227.202 156.583 232.662 159.86 236.302C163.318 239.761 167.686 241.49 172.964 241.49Z" fill="black"/>
<path fill-rule="evenodd" clip-rule="evenodd" d="M172.998 241.489C176.638 241.489 180.096 240.67 183.372 239.032C186.649 237.394 190.744 234.664 195.658 230.842V187.16C190.926 187.888 186.103 188.798 181.188 189.891C173.362 191.711 166.992 195.078 162.078 199.992C157.345 204.906 154.979 211.549 154.979 219.922C154.979 227.202 156.617 232.662 159.894 236.302C163.352 239.76 167.72 241.489 172.998 241.489Z" fill="#FFCBCB"/>
<path d="M494.421 286.43C484.13 286.43 475.374 283.541 468.152 277.764C461.111 271.806 457.591 263.321 457.591 252.308C457.591 243.642 461.743 235.699 470.048 228.477C478.533 221.075 491.803 215.659 509.856 212.229C512.926 211.507 516.446 210.875 520.418 210.333C524.57 209.611 528.632 208.889 532.604 208.167V188.939C532.604 176.663 531.07 168.178 528.001 163.484C524.931 158.79 520.057 156.443 513.377 156.443H512.565C508.412 156.443 505.072 157.797 502.545 160.505C500.198 163.032 498.663 167.275 497.941 173.233L497.129 176.753C496.587 183.975 494.691 189.3 491.442 192.731C488.192 195.98 484.13 197.605 479.255 197.605C474.742 197.605 470.951 196.251 467.882 193.543C464.993 190.655 463.549 186.953 463.549 182.44C463.549 175.038 466.076 168.809 471.131 163.754C476.186 158.699 482.866 154.908 491.171 152.381C499.656 149.853 508.773 148.589 518.522 148.589C534.59 148.589 546.867 152.471 555.352 160.234C563.837 167.997 568.08 180.635 568.08 198.147V258.537C568.08 266.3 571.781 270.181 579.183 270.181H585.411L588.119 273.16C584.87 277.312 581.259 280.472 577.287 282.638C573.315 284.985 567.899 286.159 561.039 286.159C553.276 286.159 547.047 284.353 542.353 280.743C537.84 276.951 534.861 271.987 533.417 265.848C527.639 271.987 521.952 276.951 516.356 280.743C510.759 284.534 503.447 286.43 494.421 286.43ZM510.127 269.098C513.738 269.098 517.168 268.286 520.418 266.661C523.668 265.036 527.73 262.328 532.604 258.537V215.208C527.91 215.93 523.126 216.832 518.251 217.916C510.488 219.721 504.17 223.061 499.295 227.935C494.601 232.81 492.254 239.4 492.254 247.704C492.254 254.926 493.879 260.342 497.129 263.953C500.559 267.383 504.892 269.098 510.127 269.098Z" fill="black"/>
<path d="M594.801 282.638V277.493L598.863 276.41C604.821 274.424 607.799 269.91 607.799 262.869C607.799 256.731 607.799 250.593 607.799 244.455C607.98 238.136 608.07 231.907 608.07 225.769V122.863C608.07 119.071 607.438 116.273 606.175 114.468C604.911 112.482 602.474 111.038 598.863 110.135L594.801 109.052V103.906L642.192 92.5325L645.712 94.9697L644.629 133.153V262.869C644.81 266.48 645.532 269.459 646.795 271.806C648.24 273.972 650.677 275.507 654.107 276.41L657.899 277.493V282.638H594.801Z" fill="black"/>
<path d="M670.7 282.638V277.493L674.763 276.41C680.72 274.424 683.699 269.91 683.699 262.869C683.699 256.731 683.699 250.593 683.699 244.455C683.88 238.136 683.97 231.907 683.97 225.769V122.863C683.97 119.071 683.338 116.273 682.074 114.468C680.811 112.482 678.373 111.038 674.763 110.135L670.7 109.052V103.906L718.091 92.5325L721.612 94.9697L720.529 133.153V262.869C720.709 266.48 721.431 269.459 722.695 271.806C724.139 273.972 726.577 275.507 730.007 276.41L733.798 277.493V282.638H670.7Z" fill="black"/>
<path d="M777.472 133.695C771.514 133.695 766.459 131.799 762.307 128.008C758.155 124.217 756.078 119.433 756.078 113.655C756.078 107.698 758.155 102.913 762.307 99.3026C766.459 95.5113 771.514 93.6157 777.472 93.6157C783.43 93.6157 788.485 95.5113 792.637 99.3026C796.79 102.913 798.866 107.698 798.866 113.655C798.866 119.433 796.79 124.217 792.637 128.008C788.485 131.799 783.43 133.695 777.472 133.695ZM746.329 282.638V277.493L750.391 276.41C754.002 275.327 756.439 273.702 757.703 271.535C758.967 269.369 759.689 266.48 759.87 262.869V213.041C759.87 207.444 759.87 202.299 759.87 197.605C759.87 192.731 759.779 187.766 759.599 182.711C759.599 179.1 758.877 176.302 757.432 174.316C756.169 172.149 753.731 170.705 750.121 169.983L746.329 169.171V164.296L793.72 148.589L796.97 151.568L796.158 190.023V263.14C796.158 266.751 796.79 269.64 798.053 271.806C799.498 273.972 801.935 275.597 805.365 276.681L808.344 277.493V282.638H746.329Z" fill="black"/>
<path d="M888.073 148.589C899.447 148.589 909.196 150.936 917.32 155.63C925.444 160.324 931.673 166.824 936.006 175.128C940.519 183.252 942.776 192.64 942.776 203.292C942.776 205.639 942.685 207.896 942.505 210.062C942.324 212.048 941.963 213.944 941.422 215.749H859.909C860.09 234.345 863.52 247.704 870.2 255.828C877.06 263.953 886.99 268.015 899.988 268.015C909.015 268.015 916.327 266.57 921.924 263.682C927.52 260.613 932.666 256.37 937.36 250.954L941.693 255.016C936.276 264.946 928.874 272.709 919.486 278.305C910.279 283.721 899.266 286.43 886.448 286.43C873.63 286.43 862.346 283.721 852.597 278.305C842.848 272.889 835.176 265.126 829.579 255.016C824.163 244.725 821.455 232.449 821.455 218.186C821.455 203.382 824.614 190.835 830.933 180.544C837.432 170.254 845.737 162.4 855.847 156.984C866.138 151.388 876.88 148.589 888.073 148.589ZM886.719 156.443C881.483 156.443 876.88 157.977 872.908 161.046C869.117 163.935 866.047 169.171 863.7 176.753C861.534 184.155 860.27 194.626 859.909 208.167H908.383C910.369 189.932 909.647 176.753 906.217 168.629C902.787 160.505 896.287 156.443 886.719 156.443Z" fill="black"/>
<path d="M1003.42 286.43C994.751 286.43 986.898 285.437 979.857 283.451C972.997 281.645 966.407 279.027 960.088 275.597V243.642H967.4L975.524 259.078C978.954 265.758 982.836 270.723 987.169 273.972C991.682 277.222 997.369 278.847 1004.23 278.847C1012.71 278.847 1019.49 277.042 1024.54 273.431C1029.6 269.64 1032.12 264.585 1032.12 258.266C1032.12 252.489 1030.23 247.795 1026.44 244.184C1022.64 240.573 1015.87 237.233 1006.13 234.164L994.21 230.373C983.558 227.123 975.073 222.249 968.754 215.749C962.616 209.069 959.547 200.765 959.547 190.835C959.547 183.072 961.623 176.031 965.775 169.712C969.928 163.213 975.976 158.068 983.919 154.276C991.863 150.485 1001.52 148.589 1012.9 148.589C1020.3 148.589 1027.07 149.492 1033.21 151.297C1039.52 152.922 1045.66 155.269 1051.62 158.338L1050 187.315H1042.95L1034.56 171.879C1031.67 166.101 1028.69 162.13 1025.62 159.963C1022.73 157.616 1018.22 156.443 1012.08 156.443C1005.58 156.443 999.807 158.158 994.751 161.588C989.877 164.838 987.44 169.441 987.44 175.399C987.44 180.996 989.516 185.599 993.668 189.21C997.821 192.64 1004.5 195.89 1013.71 198.959L1025.35 202.48C1038.53 206.632 1047.92 212.138 1053.52 218.999C1059.11 225.859 1061.91 234.074 1061.91 243.642C1061.91 256.46 1056.77 266.841 1046.48 274.785C1036.37 282.548 1022.01 286.43 1003.42 286.43Z" fill="black"/>
</svg>
