<svg width="390" height="47" viewBox="0 0 390 47" fill="none" xmlns="http://www.w3.org/2000/svg">
<path d="M109 0H281C277.686 0 275 2.68629 275 6V6.71329C275 9.20832 275 10.4558 274.902 11.5071C273.889 22.3234 265.323 30.8887 254.507 31.9016C253.456 32 252.208 32 249.713 32H140.287C137.792 32 136.544 32 135.493 31.9016C124.677 30.8887 116.111 22.3234 115.098 11.5071C115 10.4558 115 9.20832 115 6.71329V6C115 2.68629 112.314 0 109 0Z" fill="#272727"/>
<path d="M42.4956 19.4453C44.9019 19.4453 46.9956 21.1562 46.9956 25.2188V25.2344C46.9956 29.0312 45.2847 31.2812 42.4487 31.2812C40.3784 31.2812 38.8316 30.0547 38.4722 28.3281L38.4566 28.2422H40.4409L40.4644 28.3203C40.7612 29.1094 41.4566 29.625 42.4487 29.625C44.2378 29.625 44.9956 27.875 45.0816 25.7188C45.0816 25.6328 45.0894 25.5469 45.0894 25.4609H44.9331C44.5191 26.3516 43.5347 27.1406 41.9878 27.1406C39.8237 27.1406 38.3081 25.5625 38.3081 23.4219V23.4062C38.3081 21.1172 40.0503 19.4453 42.4956 19.4453ZM42.4878 25.5938C43.7612 25.5938 44.7378 24.6719 44.7378 23.3984V23.3828C44.7378 22.0938 43.7612 21.0859 42.5112 21.0859C41.2691 21.0859 40.2769 22.0781 40.2769 23.3359V23.3516C40.2769 24.6562 41.2066 25.5938 42.4878 25.5938ZM50.2225 23.6953C49.5116 23.6953 48.9803 23.1484 48.9803 22.4609C48.9803 21.7656 49.5116 21.2266 50.2225 21.2266C50.9412 21.2266 51.4647 21.7656 51.4647 22.4609C51.4647 23.1484 50.9412 23.6953 50.2225 23.6953ZM50.2225 29.4922C49.5116 29.4922 48.9803 28.9531 48.9803 28.2578C48.9803 27.5625 49.5116 27.0234 50.2225 27.0234C50.9412 27.0234 51.4647 27.5625 51.4647 28.2578C51.4647 28.9531 50.9412 29.4922 50.2225 29.4922ZM58.9181 31V28.8359H53.4025V27.1875C54.8634 24.6484 56.465 22.0547 57.9963 19.7266H60.8478V27.1719H62.3634V28.8359H60.8478V31H58.9181ZM55.2775 27.2188H58.9494V21.3359H58.8322C57.6759 23.1016 56.3713 25.1875 55.2775 27.1016V27.2188ZM66.7153 31V21.7109H66.5825L63.7778 23.6953V21.7969L66.7231 19.7266H68.7309V31H66.7153Z" fill="black"/>
<path opacity="0.35" d="M336.5 23C336.5 21.067 338.067 19.5 340 19.5H357C358.933 19.5 360.5 21.067 360.5 23V28C360.5 29.933 358.933 31.5 357 31.5H340C338.067 31.5 336.5 29.933 336.5 28V23Z" stroke="black"/>
<path opacity="0.4" d="M362 24V28.2203C362.849 27.8629 363.401 27.0314 363.401 26.1102C363.401 25.1889 362.849 24.3574 362 24Z" fill="black"/>
<path d="M338 23C338 21.8954 338.895 21 340 21H357C358.105 21 359 21.8954 359 23V28C359 29.1046 358.105 30 357 30H340C338.895 30 338 29.1046 338 28V23Z" fill="black"/>
<path fill-rule="evenodd" clip-rule="evenodd" d="M320.5 22.5875C322.967 22.5876 325.339 23.5551 327.127 25.2898C327.261 25.4237 327.477 25.4221 327.609 25.286L328.896 23.9605C328.963 23.8915 329.001 23.798 329 23.7008C328.999 23.6035 328.961 23.5105 328.893 23.4423C324.201 18.8526 316.799 18.8526 312.107 23.4423C312.039 23.5105 312.001 23.6034 312 23.7007C311.999 23.7979 312.037 23.8914 312.104 23.9605L313.391 25.286C313.523 25.4223 313.739 25.424 313.873 25.2898C315.661 23.5549 318.034 22.5875 320.5 22.5875ZM320.536 26.5894C321.891 26.5893 323.198 27.1035 324.203 28.032C324.338 28.1638 324.552 28.1609 324.685 28.0255L325.97 26.7C326.038 26.6304 326.075 26.5361 326.074 26.4381C326.073 26.3401 326.034 26.2466 325.965 26.1784C322.906 23.2739 318.169 23.2739 315.109 26.1784C315.04 26.2466 315.001 26.3401 315 26.4382C314.999 26.5362 315.037 26.6305 315.105 26.7L316.39 28.0255C316.522 28.1609 316.736 28.1638 316.872 28.032C317.876 27.1041 319.182 26.5899 320.536 26.5894ZM323.15 29.1767C323.152 29.275 323.114 29.3698 323.045 29.4386L320.822 31.7289C320.756 31.7962 320.668 31.834 320.575 31.834C320.482 31.834 320.393 31.7962 320.328 31.7289L318.105 29.4386C318.036 29.3697 317.998 29.2749 318 29.1766C318.002 29.0783 318.044 28.9853 318.115 28.9194C319.535 27.6935 321.615 27.6935 323.035 28.9194C323.106 28.9853 323.148 29.0784 323.15 29.1767Z" fill="black"/>
<path d="M296 23C296 22.4477 296.448 22 297 22H298C298.552 22 299 22.4477 299 23V31C299 31.5523 298.552 32 298 32H297C296.448 32 296 31.5523 296 31V23Z" fill="black"/>
<path d="M301 21C301 20.4477 301.448 20 302 20H303C303.552 20 304 20.4477 304 21V31C304 31.5523 303.552 32 303 32H302C301.448 32 301 31.5523 301 31V21Z" fill="black"/>
<path d="M291 26.5C291 25.9477 291.448 25.5 292 25.5H293C293.552 25.5 294 25.9477 294 26.5V31C294 31.5523 293.552 32 293 32H292C291.448 32 291 31.5523 291 31V26.5Z" fill="black"/>
<path d="M286 29C286 28.4477 286.448 28 287 28H288C288.552 28 289 28.4477 289 29V31C289 31.5523 288.552 32 288 32H287C286.448 32 286 31.5523 286 31V29Z" fill="black"/>
</svg>
