<svg width="34" height="34" viewBox="0 0 34 34" fill="none" xmlns="http://www.w3.org/2000/svg">
<rect x="0.792969" width="32.7761" height="33.4263" rx="12.3487" fill="#4CD4E7"/>
<path d="M14.6524 22.8417C13.7374 22.8417 12.9587 22.5849 12.3166 22.0711C11.6905 21.5414 11.3774 20.7868 11.3774 19.8075C11.3774 19.037 11.7467 18.3306 12.4852 17.6884C13.2397 17.0302 14.4197 16.5486 16.025 16.2436C16.298 16.1794 16.611 16.1232 16.9642 16.075C17.3334 16.0108 17.6946 15.9466 18.0478 15.8824V14.1726C18.0478 13.081 17.9114 12.3264 17.6385 11.909C17.3655 11.4916 16.9321 11.2829 16.3381 11.2829H16.2659C15.8966 11.2829 15.5996 11.4033 15.3749 11.6441C15.1662 11.8689 15.0297 12.2462 14.9655 12.7759L14.8932 13.089C14.8451 13.7312 14.6765 14.2047 14.3875 14.5098C14.0986 14.7987 13.7374 14.9432 13.3039 14.9432C12.9026 14.9432 12.5654 14.8228 12.2925 14.582C12.0357 14.3251 11.9072 13.996 11.9072 13.5947C11.9072 12.9365 12.132 12.3826 12.5815 11.9331C13.031 11.4836 13.625 11.1465 14.3635 10.9217C15.118 10.697 15.9287 10.5846 16.7956 10.5846C18.2244 10.5846 19.3161 10.9297 20.0706 11.6201C20.8252 12.3104 21.2024 13.4342 21.2024 14.9914V20.3614C21.2024 21.0517 21.5315 21.3969 22.1897 21.3969H22.7436L22.9844 21.6618C22.6954 22.031 22.3744 22.312 22.0212 22.5046C21.668 22.7133 21.1864 22.8177 20.5763 22.8177C19.886 22.8177 19.3321 22.6571 18.9147 22.336C18.5134 21.9989 18.2485 21.5574 18.1201 21.0116C17.6064 21.5574 17.1007 21.9989 16.603 22.336C16.1053 22.6732 15.4551 22.8417 14.6524 22.8417ZM16.0491 21.3006C16.3702 21.3006 16.6752 21.2283 16.9642 21.0838C17.2532 20.9393 17.6144 20.6985 18.0478 20.3614V16.5085C17.6304 16.5727 17.205 16.653 16.7715 16.7493C16.0812 16.9098 15.5193 17.2068 15.0859 17.6403C14.6685 18.0737 14.4598 18.6597 14.4598 19.3982C14.4598 20.0403 14.6043 20.5219 14.8932 20.843C15.1983 21.148 15.5836 21.3006 16.0491 21.3006Z" fill="white"/>
<path fill-rule="evenodd" clip-rule="evenodd" d="M16.0522 21.3006C16.3733 21.3006 16.6783 21.2283 16.9673 21.0838C17.2563 20.9393 17.6175 20.6985 18.0509 20.3614V16.5085C17.6335 16.5727 17.2081 16.6529 16.7747 16.7493C16.0843 16.9098 15.5224 17.2068 15.089 17.6403C14.6716 18.0737 14.4629 18.6597 14.4629 19.3982C14.4629 20.0403 14.6074 20.5219 14.8963 20.843C15.2014 21.148 15.5867 21.3006 16.0522 21.3006Z" fill="#4CD4E7"/>
</svg>
